<?xml version="1.0" standalone="no"?>
<!DOCTYPE svg PUBLIC "-//W3C//DTD SVG 20010904//EN"
 "http://www.w3.org/TR/2001/REC-SVG-20010904/DTD/svg10.dtd">
<svg version="1.0" xmlns="http://www.w3.org/2000/svg"
 width="600.000000pt" height="600.000000pt" viewBox="0 0 600.000000 600.000000"
 preserveAspectRatio="xMidYMid meet">
<metadata>
Created by potrace 1.14, written by Peter Selinger 2001-2017
</metadata>
<g transform="translate(0.000000,600.000000) scale(0.100000,-0.100000)"
fill="#000000" stroke="none">
<path d="M380 3000 l0 -2971 1293 4 c710 3 1317 8 1347 11 443 54 692 113 975
231 395 165 695 384 989 725 139 160 313 456 405 687 73 184 152 468 177 633
3 19 7 46 9 60 4 23 10 68 20 150 30 239 27 746 -6 983 -5 37 -11 86 -14 110
-6 51 -3 34 -60 301 -11 51 -59 206 -91 293 -48 134 -59 159 -134 308 -128
255 -316 509 -504 684 -21 20 -48 45 -60 56 -77 74 -284 224 -411 297 -205
117 -470 229 -650 274 -44 11 -45 11 -110 28 -33 9 -73 19 -90 22 -16 2 -61
11 -100 19 -38 8 -92 17 -120 20 -27 4 -61 8 -75 11 -14 2 -54 7 -90 10 -36 3
-83 8 -105 11 -22 3 -615 8 -1317 10 l-1278 4 0 -2971z m2465 1583 c486 -55
776 -225 959 -565 77 -142 141 -357 162 -543 3 -27 7 -56 9 -63 24 -73 24
-706 1 -828 -2 -12 -7 -45 -11 -75 -10 -85 -55 -276 -82 -354 -65 -180 -143
-307 -268 -430 -136 -135 -291 -216 -516 -269 -181 -43 -296 -52 -716 -55
l-393 -2 0 1601 0 1601 368 -2 c226 -2 413 -8 487 -16z"/>
</g>
</svg>
